<svg width="309" height="92" viewBox="0 0 309 92" fill="none" xmlns="http://www.w3.org/2000/svg">
<path d="M277.464 70.136C275.064 70.904 272.664 71.288 270.264 71.288C267.896 71.288 266.12 71.208 264.936 71.048C264.936 73.928 265.4 76.024 266.328 77.336C267.192 78.584 268.536 79.208 270.36 79.208C272.184 79.208 274.168 78.216 276.312 76.232C277.24 77.192 277.832 78.456 278.088 80.024C275.496 81.784 272.792 82.664 269.976 82.664C266.616 82.664 264.28 81.576 262.968 79.4C261.656 77.192 261 74.28 261 70.664C261 67.048 261.72 64.2 263.16 62.12C264.632 60.04 267.016 59 270.312 59C272.616 59 274.456 59.704 275.832 61.112C277.24 62.488 277.944 64.136 277.944 66.056C277.976 67.944 277.816 69.304 277.464 70.136ZM269.976 61.688C267.032 61.688 265.368 63.88 264.984 68.264C266.36 68.424 267.912 68.504 269.64 68.504C271.4 68.504 272.776 68.344 273.768 68.024C273.896 66.872 273.96 66.28 273.96 66.248C273.96 65 273.64 63.928 273 63.032C272.36 62.136 271.352 61.688 269.976 61.688Z" fill="#EA4335"/>
<path d="M251.144 81.832C251.624 77.672 251.864 72.744 251.864 67.048C251.864 61.32 251.816 57.528 251.72 55.672C251.624 53.816 251.384 51.752 251 49.48C251.832 49.16 252.664 49 253.496 49C254.328 49 255.192 49.032 256.088 49.096C255.608 53.032 255.368 58.92 255.368 66.76C255.368 74.6 255.656 79.496 256.232 81.448C255.176 81.768 254.2 81.928 253.304 81.928C252.408 81.928 251.688 81.896 251.144 81.832Z" fill="#34A853"/>
<path d="M49 70.568C49 62.856 52.008 59 58.024 59C64.04 59 67.048 62.856 67.048 70.568C67.048 74.12 66.488 76.936 65.368 79.016C64.088 81.448 61.64 82.664 58.024 82.664C54.408 82.664 51.96 81.448 50.68 79.016C49.56 76.936 49 74.12 49 70.568ZM52.936 70.472C52.936 76.296 54.632 79.208 58.024 79.208C61.416 79.208 63.112 76.296 63.112 70.472C63.112 64.616 61.416 61.688 58.024 61.688C54.632 61.688 52.936 64.616 52.936 70.472Z" fill="#FBBC07"/>
<path d="M71.3594 70.568C71.3594 62.856 74.3674 59 80.3834 59C86.3994 59 89.4074 62.856 89.4074 70.568C89.4074 74.12 88.8474 76.936 87.7274 79.016C86.4474 81.448 83.9994 82.664 80.3834 82.664C76.7674 82.664 74.3194 81.448 73.0394 79.016C71.9194 76.936 71.3594 74.12 71.3594 70.568ZM75.2954 70.472C75.2954 76.296 76.9914 79.208 80.3834 79.208C83.7754 79.208 85.4714 76.296 85.4714 70.472C85.4714 64.616 83.7754 61.688 80.3834 61.688C76.9914 61.688 75.2954 64.616 75.2954 70.472Z" fill="#FBBC07"/>
<path d="M93.7188 70.568C93.7188 62.856 96.7268 59 102.743 59C108.759 59 111.767 62.856 111.767 70.568C111.767 74.12 111.207 76.936 110.087 79.016C108.807 81.448 106.359 82.664 102.743 82.664C99.1268 82.664 96.6787 81.448 95.3988 79.016C94.2788 76.936 93.7188 74.12 93.7188 70.568ZM97.6548 70.472C97.6548 76.296 99.3508 79.208 102.743 79.208C106.135 79.208 107.831 76.296 107.831 70.472C107.831 64.616 106.135 61.688 102.743 61.688C99.3508 61.688 97.6548 64.616 97.6548 70.472Z" fill="#FBBC07"/>
<path d="M116.078 70.568C116.078 62.856 119.086 59 125.102 59C131.118 59 134.126 62.856 134.126 70.568C134.126 74.12 133.566 76.936 132.446 79.016C131.166 81.448 128.718 82.664 125.102 82.664C121.486 82.664 119.038 81.448 117.758 79.016C116.638 76.936 116.078 74.12 116.078 70.568ZM120.014 70.472C120.014 76.296 121.71 79.208 125.102 79.208C128.494 79.208 130.19 76.296 130.19 70.472C130.19 64.616 128.494 61.688 125.102 61.688C121.71 61.688 120.014 64.616 120.014 70.472Z" fill="#FBBC07"/>
<path d="M138.438 70.568C138.438 62.856 141.446 59 147.462 59C153.478 59 156.486 62.856 156.486 70.568C156.486 74.12 155.926 76.936 154.806 79.016C153.526 81.448 151.077 82.664 147.462 82.664C143.846 82.664 141.397 81.448 140.118 79.016C138.997 76.936 138.438 74.12 138.438 70.568ZM142.373 70.472C142.373 76.296 144.07 79.208 147.462 79.208C150.854 79.208 152.549 76.296 152.549 70.472C152.549 64.616 150.854 61.688 147.462 61.688C144.07 61.688 142.373 64.616 142.373 70.472Z" fill="#FBBC07"/>
<path d="M160.797 70.568C160.797 62.856 163.805 59 169.821 59C175.837 59 178.845 62.856 178.845 70.568C178.845 74.12 178.285 76.936 177.165 79.016C175.885 81.448 173.437 82.664 169.821 82.664C166.205 82.664 163.757 81.448 162.477 79.016C161.357 76.936 160.797 74.12 160.797 70.568ZM164.733 70.472C164.733 76.296 166.429 79.208 169.821 79.208C173.213 79.208 174.909 76.296 174.909 70.472C174.909 64.616 173.213 61.688 169.821 61.688C166.429 61.688 164.733 64.616 164.733 70.472Z" fill="#FBBC07"/>
<path d="M183.156 70.568C183.156 62.856 186.164 59 192.18 59C198.196 59 201.204 62.856 201.204 70.568C201.204 74.12 200.644 76.936 199.524 79.016C198.244 81.448 195.796 82.664 192.18 82.664C188.564 82.664 186.116 81.448 184.836 79.016C183.716 76.936 183.156 74.12 183.156 70.568ZM187.092 70.472C187.092 76.296 188.788 79.208 192.18 79.208C195.572 79.208 197.268 76.296 197.268 70.472C197.268 64.616 195.572 61.688 192.18 61.688C188.788 61.688 187.092 64.616 187.092 70.472Z" fill="#FBBC07"/>
<path d="M205.516 70.568C205.516 62.856 208.524 59 214.54 59C220.556 59 223.564 62.856 223.564 70.568C223.564 74.12 223.004 76.936 221.884 79.016C220.604 81.448 218.156 82.664 214.54 82.664C210.924 82.664 208.476 81.448 207.196 79.016C206.076 76.936 205.516 74.12 205.516 70.568ZM209.452 70.472C209.452 76.296 211.148 79.208 214.54 79.208C217.932 79.208 219.628 76.296 219.628 70.472C219.628 64.616 217.932 61.688 214.54 61.688C211.148 61.688 209.452 64.616 209.452 70.472Z" fill="#FBBC07"/>
<path d="M26 70.568C26 62.856 29.008 59 35.024 59C41.04 59 44.048 62.856 44.048 70.568C44.048 74.12 43.488 76.936 42.368 79.016C41.088 81.448 38.64 82.664 35.024 82.664C31.408 82.664 28.96 81.448 27.68 79.016C26.56 76.936 26 74.12 26 70.568ZM29.936 70.472C29.936 76.296 31.632 79.208 35.024 79.208C38.416 79.208 40.112 76.296 40.112 70.472C40.112 64.616 38.416 61.688 35.024 61.688C31.632 61.688 29.936 64.616 29.936 70.472Z" fill="#EA4335"/>
<path d="M11.904 83.16C6.976 83.16 3.696 81.48 2.064 78.12C1.264 76.456 0.72 74.76 0.432 73.032C0.144 71.272 0 69.336 0 67.224C0 65.112 0.112 63.304 0.336 61.8C0.592 60.296 1.008 58.872 1.584 57.528C2.16 56.152 2.896 54.984 3.792 54.024C5.712 52.008 8.336 51 11.664 51C15.024 51 17.488 51.8 19.056 53.4C20.624 54.968 21.408 57 21.408 59.496C21.408 59.88 21.36 60.28 21.264 60.696C20.432 60.984 19.6 61.128 18.768 61.128C17.936 61.128 17.328 61.096 16.944 61.032C16.976 60.776 16.992 60.44 16.992 60.024C16.992 58.136 16.544 56.632 15.648 55.512C14.752 54.392 13.504 53.832 11.904 53.832C9.152 53.832 7.136 55 5.856 57.336C4.576 59.672 3.936 62.824 3.936 66.792C3.936 72.968 5.232 76.888 7.824 78.552C8.944 79.256 10.304 79.608 11.904 79.608C14.528 79.608 16.72 78.872 18.48 77.4C18.448 74.84 18.336 72.648 18.144 70.824C14.432 70.888 11.856 71.064 10.416 71.352C10.256 70.328 10.176 69.496 10.176 68.856C10.176 68.184 10.192 67.64 10.224 67.224C11.728 67.48 13.744 67.608 16.272 67.608C18.832 67.608 20.768 67.56 22.08 67.464C21.76 70.664 21.6 74.84 21.6 79.992C18.752 82.104 15.52 83.16 11.904 83.16Z" fill="#4285F4"/>
<path d="M236.36 58.84C237.96 58.84 239.352 59.096 240.536 59.608V58.84C240.536 57.56 240.792 56.6 241.304 55.96C241.848 55.32 242.776 55 244.088 55C244.312 55 244.712 55.032 245.288 55.096C245.352 55.608 245.384 56.136 245.384 56.68C245.384 57.192 245.288 57.96 245.096 58.984C244.872 58.952 244.52 58.936 244.04 58.936C243.56 58.936 243.208 59.096 242.984 59.416C242.76 59.704 242.632 60.2 242.6 60.904L242.408 60.856C243.784 62.232 244.472 64.28 244.472 67C244.472 69.496 243.976 71.576 242.984 73.24C241.864 75.096 239.656 76.024 236.36 76.024C234.984 76.024 233.864 75.864 233 75.544C232.328 76.728 231.832 78.024 231.512 79.432C232.056 79.528 232.632 79.576 233.24 79.576C233.848 79.576 235.064 79.464 236.888 79.24C238.712 79.016 240.024 78.904 240.824 78.904C242.488 78.904 243.832 79.32 244.856 80.152C245.88 80.984 246.392 82.264 246.392 83.992C246.392 85.72 245.832 87.224 244.712 88.504C242.76 90.744 239.72 91.864 235.592 91.864C232.808 91.864 230.68 91.512 229.208 90.808C227.736 90.104 227 88.792 227 86.872C227 86.36 227.032 85.928 227.096 85.576C227.768 85.32 228.456 85.192 229.16 85.192C229.896 85.192 230.68 85.256 231.512 85.384C231.448 85.64 231.416 86.056 231.416 86.632C231.416 87.24 231.784 87.816 232.52 88.36C233.256 88.936 234.504 89.224 236.264 89.224C238.024 89.224 239.528 88.872 240.776 88.168C242.056 87.464 242.696 86.408 242.696 85C242.696 83.432 241.848 82.648 240.152 82.648C239.32 82.648 238.008 82.744 236.216 82.936C234.424 83.16 233 83.272 231.944 83.272C230.92 83.272 230.056 83.048 229.352 82.6C228.68 82.184 228.344 81.528 228.344 80.632C228.344 78.936 229.16 76.856 230.792 74.392C229.096 73.016 228.248 70.552 228.248 67C228.248 61.56 230.952 58.84 236.36 58.84ZM232.136 67.048C232.136 70.824 233.544 72.712 236.36 72.712C239.176 72.712 240.584 70.824 240.584 67.048C240.584 63.272 239.176 61.384 236.36 61.384C233.544 61.384 232.136 63.272 232.136 67.048Z" fill="#4285F4"/>
<path d="M293.59 74.59L298.17 70L293.59 65.41L295 64L301 70L295 76L293.59 74.59Z" fill="#4285F4"/>
</svg>
